Coordinates
version=1
nRows=26
nColumns=24
inDegrees=yes

Units are S.I. units (second, meters, Newtons, ...)
Angles are in degrees.

endheader
time	pelvis_tilt	pelvis_list	pelvis_rotation	pelvis_tx	pelvis_ty	pelvis_tz	hip_flexion_r	hip_adduction_r	hip_rotation_r	knee_angle_r	ankle_angle_r	subtalar_angle_r	mtp_angle_r	hip_flexion_l	hip_adduction_l	hip_rotation_l	knee_angle_l	ankle_angle_l	subtalar_angle_l	mtp_angle_l	lumbar_extension	lumbar_bending	lumbar_rotation
      4.52000000	     -2.88728980	     -5.06024622	    -15.18004518	      0.18350445	      0.65864679	     -0.12717576	    -20.42835363	      0.70532541	      7.05709325	    -12.37518549	     -0.12277563	     -4.62540446	      0.00000000	     23.25451585	    -11.33864532	     -3.34042375	     -4.34315688	     -2.67949706	    -14.85461521	      0.00000000	     -5.28900161	      2.65995406	     22.34950956
      4.53000000	     -2.58995568	     -4.06905861	    -14.22809519	      0.20229988	      0.65797229	     -0.12975400	    -19.60884411	     -0.15220726	      6.89097822	    -16.18458735	     -4.51683557	     -7.17410414	      0.00000000	     23.08446980	     -9.44266447	     -1.63799044	     -6.23803722	     -5.78604360	    -17.74374861	      0.00000000	     -4.36243360	      1.86133555	     21.33083278
      4.54000000	     -2.24818703	     -2.76426605	    -12.97266785	      0.22052686	      0.65763733	     -0.13225494	    -18.47207508	     -1.05944967	      6.51344255	    -20.36708540	     -9.60724290	    -10.43391407	      0.00000000	     23.12806247	     -7.14101108	      0.07035192	     -8.55956938	     -7.92993521	    -19.67380839	      0.00000000	     -3.57501008	      0.50116574	     20.02360708
      4.55000000	     -1.82760737	     -1.19257503	    -11.48143401	      0.23802624	      0.65764891	     -0.13455848	    -17.01552546	     -2.02452503	      5.92677038	    -25.03801600	    -14.89556972	    -14.23236858	      0.00000000	     23.28089232	     -4.49479609	      1.65338754	    -11.29395037	     -8.63633613	    -20.76842577	      0.00000000	     -3.08962489	     -1.40904049	     18.49710186
      4.56000000	     -1.34116109	      0.50543235	     -9.89683654	      0.25468052	      0.65793309	     -0.13652138	    -15.22281948	     -2.98120867	      5.25795173	    -30.24193494	    -19.89471236	    -18.50063099	      0.00000000	     23.38758856	     -1.71918776	      2.89395982	    -14.24173675	     -7.83239128	    -21.02129993	      0.00000000	     -3.01143015	     -3.68357595	     16.88792069
      4.57000000	     -0.82659280	      2.20826976	     -8.40595821	      0.27045140	      0.65839233	     -0.13804322	    -13.07275279	     -3.90488102	      4.63734701	    -35.89124809	    -24.15628835	    -23.19421024	      0.00000000	     23.26580263	      0.95869056	      3.70228486	    -17.01981381	     -5.79785214	    -20.47640794	      0.00000000	     -3.35741205	     -6.11558626	     15.39944579
      4.58000000	     -0.32239999	      3.85471842	     -7.13713527	      0.28538367	      0.65899484	     -0.13915745	    -10.57940433	     -4.82030903	      4.14779906	    -41.74299026	    -27.27669141	    -27.96956941	      0.00000000	     22.77462878	      3.41176862	      4.11723194	    -19.21563681	     -3.28054441	    -19.56914414	      0.00000000	     -4.06255392	     -8.52658533	     14.03578925
      4.59000000	      0.16493072	      5.39360455	     -6.23249638	      0.29958722	      0.65981884	     -0.13989064	     -7.81692328	     -5.72992397	      3.95115521	    -47.44663264	    -29.08819497	    -32.54093513	      0.00000000	     21.79284659	      5.54807948	      4.23593565	    -20.51061505	     -0.92225993	    -18.77543776	      0.00000000	     -5.02568636	    -10.78805314	     12.93951846
      4.60000000	      0.62564602	      6.67884839	     -5.69400210	      0.31323242	      0.66100615	     -0.14031834	     -4.90254739	     -6.42612516	      4.18568111	    -52.61276068	    -29.62438217	    -36.51796812	      0.00000000	     20.29578003	      7.24492044	      4.25765563	    -20.81733137	      1.16065438	    -18.12709810	      0.00000000	     -6.12215870	    -12.68423503	     12.05314766
      4.61000000	      1.06311424	      7.66887946	     -5.44563248	      0.32647127	      0.66264837	     -0.14057197	     -1.90699596	     -6.84110095	      4.72001134	    -57.01813737	    -28.32392888	    -39.00577526	      0.00000000	     18.33372664	      8.52059583	      4.31325304	    -20.19372719	      2.56419704	    -17.97671164	      0.00000000	     -7.26141759	    -14.15507453	     11.32948457
      4.62000000	      1.41660049	      8.14898347	     -5.48844245	      0.33934300	      0.66473587	     -0.14047472	      1.11605864	     -6.60176043	      5.67829909	    -60.45410534	    -26.44483160	    -41.02864230	      0.00000000	     16.19528434	      9.07561331	      3.91087970	    -19.08423406	      3.89632736	    -17.16548368	      0.00000000	     -8.29576223	    -15.00409466	     10.93135405
      4.63000000	      1.67014531	      8.21806563	     -5.58764791	      0.35203202	      0.66722231	     -0.14030274	      4.11685659	     -5.84075127	      6.67008318	    -62.93191671	    -23.30398054	    -41.35127048	      0.00000000	     13.89581865	      9.17860777	      3.66461084	    -17.52108624	      4.97380936	    -16.41486701	      0.00000000	     -9.16450641	    -15.32900407	     10.51744681
      4.64000000	      1.80269984	      7.89443579	     -5.63477107	      0.36460080	      0.66999825	     -0.14006398	      7.03457680	     -4.58222582	      7.53876582	    -64.45344039	    -19.61720212	    -40.50839002	      0.00000000	     11.58942531	      8.85325877	      3.52369316	    -15.75249062	      5.69129442	    -15.58364994	      0.00000000	     -9.84763854	    -15.16564685	     10.07478374
      4.65000000	      1.77945147	      7.31341436	     -5.47029556	      0.37709055	      0.67283665	     -0.13991916	      9.88948328	     -3.06733004	      8.03232555	    -65.11708240	    -15.71505233	    -38.81082671	      0.00000000	      9.44290708	      8.27200717	      3.58652795	    -14.01829483	      6.34220264	    -14.76086150	      0.00000000	    -10.33328705	    -14.65316214	      9.35554491
      4.66000000	      1.69701211	      6.55527926	     -5.06576959	      0.38956638	      0.67569484	     -0.13991526	     12.56552165	     -1.48059068	      8.07368648	    -64.96996373	    -12.10800700	    -36.74148246	      0.00000000	      7.38197186	      7.52102306	      3.92641063	    -12.34650124	      6.78399080	    -13.92586633	      0.00000000	    -10.73982366	    -13.88780180	      8.40543247
      4.67000000	      1.52883891	      5.73799543	     -4.47980770	      0.40200998	      0.67831700	     -0.14004409	     15.13755140	     -0.00643470	      7.70791364	    -64.12646917	     -8.83945502	    -34.81890763	      0.00000000	      5.52807081	      6.70095515	      4.39407590	    -10.86213598	      7.15393342	    -13.30734849	      0.00000000	    -11.03839734	    -12.99957601	      7.27895843
      4.68000000	      1.38590780	      4.93377335	     -3.60293471	      0.41444836	      0.68070720	     -0.14044906	     17.45913311	      1.17591993	      6.84142531	    -62.58682408	     -6.53405820	    -33.65628130	      0.00000000	      3.71380329	      5.90038121	      5.28619302	     -9.46768004	      7.48992027	    -12.72751214	      0.00000000	    -11.40519051	    -12.05865653	      5.91040113
      4.69000000	      1.19994345	      4.16155282	     -2.54579946	      0.42682757	      0.68266381	     -0.14106470	     19.62830038	      2.06049124	      5.62167431	    -60.43007837	     -4.93195382	    -33.31855465	      0.00000000	      2.08631362	      5.10125213	      6.26137789	     -8.25966683	      7.77665162	    -12.28527648	      0.00000000	    -11.75991650	    -11.08132056	      4.43399081
      4.70000000	      0.93374899	      3.48124473	     -1.32225722	      0.43916185	      0.68408600	     -0.14190160	     21.66440503	      2.57943287	      4.13303574	    -57.68440821	     -4.01288746	    -33.70789687	      0.00000000	      0.68922545	      4.35596015	      7.21403679	     -7.23401354	      8.09888923	    -11.80685782	      0.00000000	    -12.04973226	    -10.12785079	      2.88889138
      4.71000000	      0.74417495	      2.96728721	      0.05558002	      0.45143502	      0.68504682	     -0.14298343	     23.39536022	      2.62797669	      2.38389662	    -54.42371466	     -3.24302417	    -34.33425576	      0.00000000	     -0.69310959	      3.75027846	      8.25877474	     -6.30918912	      8.45872634	    -11.31309792	      0.00000000	    -12.49072444	     -9.29043111	      1.40638676
      4.72000000	      0.73781677	      2.61445418	      1.47786219	      0.46371979	      0.68563975	     -0.14417741	     24.62543952	      2.34534191	      0.65306001	    -50.60180974	     -2.79548907	    -35.16663937	      0.00000000	     -2.26526764	      3.25866763	      9.43567737	     -5.35782443	      8.90177504	    -10.90212914	      0.00000000	    -13.17171272	     -8.57117082	      0.00423794
      4.73000000	      0.70334493	      2.44817263	      3.00284347	      0.47596855	      0.68568346	     -0.14552165	     25.56369248	      1.70597182	     -1.09921026	    -46.25213365	     -2.70439189	    -36.07750562	      0.00000000	     -3.68558157	      2.91228041	     10.40259876	     -4.58779449	      9.31517616	    -10.46210848	      0.00000000	    -13.85551801	     -7.99348778	     -1.30974496
      4.74000000	      0.64301729	      2.52292586	      4.59051304	      0.48824145	      0.68517651	     -0.14697160	     26.18339543	      0.72188111	     -2.74412028	    -41.43553877	     -2.75192213	    -36.58043586	      0.00000000	     -5.01162260	      2.77518065	     11.26724239	     -3.96887877	      9.93501774	     -9.83636657	      0.00000000	    -14.51565425	     -7.64199987	     -2.52541094
      4.75000000	      0.64590862	      2.81997038	      6.22199183	      0.50063319	      0.68422895	     -0.14847782	     26.35207314	     -0.51945901	     -4.22825461	    -36.17226809	     -2.98037826	    -36.59276954	      0.00000000	     -6.36459865	      2.82030196	     11.99274736	     -3.49927915	     10.67733139	     -9.08144599	      0.00000000	    -15.23691913	     -7.49671528	     -3.69706220
      4.76000000	      0.67309236	      3.35336023	      7.88243856	      0.51320377	      0.68281314	     -0.15002592	     26.14056884	     -1.99543279	     -5.53019418	    -30.60347005	     -3.30032918	    -35.95864461	      0.00000000	     -7.72965818	      3.06614339	     12.71528785	     -3.19678752	     11.59953021	     -8.31188669	      0.00000000	    -15.95848572	     -7.58049102	     -4.86250103
      4.77000000	      0.78901767	      4.09684367	      9.55675083	      0.52602955	      0.68104191	     -0.15161233	     25.53634185	     -3.65899583	     -6.74532159	    -24.91675201	     -3.51351467	    -34.46927597	      0.00000000	     -9.17290191	      3.47005198	     13.36233109	     -3.10422014	     12.62833754	     -7.46189681	      0.00000000	    -16.74133507	     -7.84304856	     -5.96465941
